<svg xmlns="http://www.w3.org/2000/svg" width="768" height="248" viewBox="0 0 203.2 65.62" version="1.1"><defs id="defs2"><style id="style956"></style><style id="style1156"></style></defs><g id="layer1" transform="translate(0 -231.38)"><path d="M11.06 252.55c-.64 0-1.15.52-1.15 1.15v23.1c0 .63.51 1.15 1.15 1.15h28.68c.64 0 1.15-.52 1.15-1.15v-23.1c0-.63-.51-1.15-1.15-1.15zm1.15 2.3H38.6v5.26H12.2zm3.15 1.38a1.33 1.33 0 00-1.33 1.33 1.33 1.33 0 001.33 1.33 1.33 1.33 0 001.33-1.33 1.33 1.33 0 00-1.33-1.33zm4.1 0a1.33 1.33 0 00-1.34 1.33 1.33 1.33 0 001.34 1.33 1.33 1.33 0 001.33-1.33 1.33 1.33 0 00-1.33-1.33zm4.1 0a1.33 1.33 0 00-1.34 1.33 1.33 1.33 0 001.33 1.33 1.33 1.33 0 001.34-1.33 1.33 1.33 0 00-1.34-1.33zM12.2 262.4H38.6v13.24H12.2zm3.15 2.84a1.15 1.15 0 100 2.3h20.28a1.15 1.15 0 100-2.3zm0 3.95a1.15 1.15 0 100 2.3h20.28a1.15 1.15 0 100-2.3z" id="path815" opacity="1" fill="#000" stroke-width=".13"/><text xml:space="preserve" style="line-height:1.25" x="19.7" y="292.48" id="text1010" font-style="normal" font-weight="400" font-size="10.58" font-family="sans-serif" letter-spacing="0" word-spacing="0" opacity="1" fill="#000" fill-opacity="1" stroke="none" stroke-width=".26"><tspan id="tspan1008" x="19.7" y="292.48" style="line-height:0;-inkscape-font-specification:''Courier New', Courier, monospace, Bold';font-variant-ligatures:normal;font-variant-caps:normal;font-variant-numeric:normal;font-feature-settings:normal;text-align:start" font-style="normal" font-variant="normal" font-weight="700" font-stretch="normal" font-size="6.35" font-family="'Courier New', Courier, monospace" writing-mode="lr-tb" text-anchor="start" fill="#000" stroke-width=".26">You</tspan></text><path d="M101.8 252.55a6.33 6.33 0 00-6.47 7.28h-3.85l2.34-2.34-1.28-1.28-4.53 4.53 4.53 4.53 1.28-1.28-2.34-2.35h4.4a6.33 6.33 0 0011.99-3.62h3.85l-2.34 2.35 1.28 1.27 4.53-4.53-4.53-4.53-1.28 1.28 2.34 2.35h-4.4a6.33 6.33 0 00-5.51-3.66zm-.1 1.85a4.52 4.52 0 013.5 1.8h-3.6v1.82h4.44a4.53 4.53 0 01.09.9 4.51 4.51 0 01-8.13 2.72h3.6v-1.8h-4.44a4.52 4.52 0 014.53-5.44zm-9.16 14.5a1.81 1.81 0 00-1.81 1.8v5.44a1.81 1.81 0 001.81 1.81h18.12a1.81 1.81 0 001.81-1.81v-5.44a1.81 1.81 0 00-1.81-1.8zm0 1.8h18.12v5.44H92.54zm2.72 1.81a.9.9 0 00-.9.91.9.9 0 00.9.9.9.9 0 00.9-.9.9.9 0 00-.9-.9z" id="path1160" opacity="1" fill="#000" stroke-width=".91"/><path d="M166.87 252.55c-1.1 0-1.99.89-1.99 1.98v5.08c0 .42.14.8.36 1.12h25.12c.22-.32.36-.7.36-1.12v-5.08c0-1.09-.9-1.98-1.99-1.98zm2.54 2.58a1.94 1.94 0 11-.01 3.88 1.94 1.94 0 010-3.88zm10.11.86a.43.43 0 110 .87.43.43 0 010-.87zm1.72 0a.43.43 0 110 .87.43.43 0 010-.87zm1.73 0a.43.43 0 110 .87.43.43 0 010-.87zm1.72 0a.43.43 0 110 .87.43.43 0 010-.87zm1.72 0a.43.43 0 110 .87.43.43 0 010-.87zm-6.03 1.3a.43.43 0 110 .86.43.43 0 010-.86zm1.73 0a.43.43 0 110 .86.43.43 0 010-.86zm1.72 0a.43.43 0 110 .86.43.43 0 010-.86zm1.72 0a.43.43 0 110 .86.43.43 0 010-.86zm1.72 0a.43.43 0 110 .86.43.43 0 010-.86zm-22.03 4.3c-.22.32-.36.7-.36 1.12v5.08c0 .42.14.8.36 1.12h25.12c.22-.32.36-.7.36-1.12v-5.08c0-.42-.14-.8-.36-1.12zm4.17 1.72a1.94 1.94 0 11-.01 3.88 1.94 1.94 0 010-3.88zm10.11.86a.43.43 0 110 .87.43.43 0 010-.87zm1.72 0a.43.43 0 110 .87.43.43 0 010-.87zm1.73 0a.43.43 0 110 .87.43.43 0 010-.87zm1.72 0a.43.43 0 110 .87.43.43 0 010-.87zm1.72 0a.43.43 0 110 .87.43.43 0 010-.87zm-6.03 1.3a.43.43 0 110 .86.43.43 0 010-.86zm1.73 0a.43.43 0 110 .86.43.43 0 010-.86zm1.72 0a.43.43 0 110 .86.43.43 0 010-.86zm1.72 0a.43.43 0 110 .86.43.43 0 010-.86zm1.72 0a.43.43 0 110 .86.43.43 0 010-.86zm-22.03 4.3c-.22.32-.36.7-.36 1.12v5.08c0 1.09.9 1.98 1.99 1.98h21.86c1.1 0 1.99-.89 1.99-1.98v-5.08c0-.42-.14-.8-.36-1.12zm4.17 1.72a1.94 1.94 0 11-.01 3.88 1.94 1.94 0 010-3.88zm10.11.86a.43.43 0 110 .86.43.43 0 010-.86zm1.72 0a.43.43 0 110 .86.43.43 0 010-.86zm1.73 0a.43.43 0 110 .86.43.43 0 010-.86zm1.72 0a.43.43 0 110 .86.43.43 0 010-.86zm1.72 0a.43.43 0 110 .86.43.43 0 010-.86zm-6.03 1.3a.43.43 0 110 .86.43.43 0 010-.87zm1.73 0a.43.43 0 110 .86.43.43 0 010-.87zm1.72 0a.43.43 0 110 .86.43.43 0 010-.87zm1.72 0a.43.43 0 110 .86.43.43 0 010-.87zm1.72 0a.43.43 0 110 .86.43.43 0 010-.87z" id="path1207" fill="#000" stroke-width=".43"/><text xml:space="preserve" style="line-height:1.25" x="157" y="292" id="text1010-2-8" font-style="normal" font-weight="400" font-size="10.58" font-family="sans-serif" letter-spacing="0" word-spacing="0" opacity="1" fill="#000" fill-opacity="1" stroke="none" stroke-width=".26"><tspan id="tspan1008-5-6" x="157" y="292" style="line-height:0;-inkscape-font-specification:''Courier New', Courier, monospace, Bold';font-variant-ligatures:normal;font-variant-caps:normal;font-variant-numeric:normal;font-feature-settings:normal;text-align:start" font-style="normal" font-variant="normal" font-weight="700" font-stretch="normal" font-size="6.35" font-family="'Courier New', Courier, monospace" writing-mode="lr-tb" text-anchor="start" fill="#000" stroke-width=".26">Application</tspan></text><path d="M208.97 55.03l-11.31 11.31L192 72l5.66 5.66 11.31 11.31 5.66-5.66L207.3 76h65.38l-7.32 7.31 5.66 5.66 11.31-11.31L288 72l-5.66-5.66-11.31-11.31-5.66 5.66L272.7 68H207.3l7.32-7.31z" transform="matrix(.26458 0 0 .26458 0 246.2)" id="rect1379" opacity="1" fill="#757575" fill-opacity="1" stroke="none" stroke-width="8" stroke-linecap="square" stroke-miterlimit="0" stroke-dasharray="none" stroke-dashoffset="0" stroke-opacity="1" paint-order="markers stroke fill"/><path d="M131.49 260.76l-3 3-1.49 1.49 1.5 1.5 2.99 2.99 1.5-1.5-1.94-1.93h17.3l-1.94 1.93 1.5 1.5 3-3 1.49-1.49-1.5-1.5-2.99-2.99-1.5 1.5 1.94 1.93h-17.3l1.94-1.93z" id="rect1379-9" opacity="1" fill="#757575" fill-opacity="1" stroke="none" stroke-width="2.12" stroke-linecap="square" stroke-miterlimit="0" stroke-dasharray="none" stroke-dashoffset="0" stroke-opacity="1" paint-order="markers stroke fill"/><path d="M96 16a24 24 0 00-24 24 24 24 0 0024 24 24 24 0 0024-24 24 24 0 00-24-24zm9.32 14.47l3.64 3.63-16.39 16.4-10.39-10.4 3.64-3.63 6.75 6.75z" transform="matrix(.26458 0 0 .26458 0 229.27)" id="circle2" fill="#00c853" fill-opacity="1" stroke-width=".09"/><path d="M177.8 233.5a6.35 6.35 0 100 12.7 6.35 6.35 0 000-12.7zm-2.34 2.84l2.34 2.34 2.34-2.34 1.17 1.17-2.34 2.34 2.34 2.34-1.17 1.17-2.34-2.34-2.34 2.34-1.17-1.17 2.34-2.34-2.34-2.34z" id="path2" fill="#d50000" fill-opacity="1" stroke-width=".02"/><path d="M101.6 233.5a6.35 6.35 0 00-6.35 6.35 6.35 6.35 0 006.35 6.35 6.35 6.35 0 006.35-6.35 6.35 6.35 0 00-6.35-6.35zm2.47 3.83l.96.96-4.34 4.34-2.75-2.75.97-.96 1.78 1.78z" id="circle2-1" fill="#00c853" fill-opacity="1" stroke-width=".02"/><text xml:space="preserve" style="line-height:1.25" x="78.63" y="291.91" id="text1010-5" font-style="normal" font-weight="400" font-size="10.58" font-family="sans-serif" letter-spacing="0" word-spacing="0" opacity="1" fill="#000" fill-opacity="1" stroke="none" stroke-width=".26"><tspan x="78.63" y="291.91" style="line-height:0%;-inkscape-font-specification:''Courier New', Courier, monospace, Bold';font-variant-ligatures:normal;font-variant-caps:normal;font-variant-numeric:normal;font-feature-settings:normal;text-align:start" id="tspan1658" font-style="normal" font-variant="normal" font-weight="700" font-stretch="normal" font-size="6.35" font-family="'Courier New', Courier, monospace" word-spacing="0" writing-mode="lr-tb" text-anchor="start" fill="#000" stroke-width=".26">Proxy Server</tspan></text></g></svg>
